<svg enable-background="new 0 0 384.502 124.08" height="124.08" viewBox="0 0 384.502 124.08" width="384.502" xmlns="http://www.w3.org/2000/svg"><g fill="#8c8c8c"><path d="m216.443 92.135 16.318-23.214h-43.65-.32-43.652l-2.342 13.096h19.91l-17.746 25.341-10.363 14.796h43.652.213 43.65l2.344-13.098h-19.91zm-37.904 29.609 2.268-12.688h-19.911l4.211-5.99 23.576-33.533-2.233 12.484h19.909l-10.096 14.419z"/><path d="m125.038 68.921-7.771 44.158-1.596 9.074h14.798l2.174-12.35 7.195-40.882z"/><path d="m115.217 0h-.121c.045 0 .08.034.121.042z"/><path d="m136.039 17.26c1.254-1.008.576-3.025-1.029-3.077l-12.348-.395c-.695-.02-1.312-.461-1.564-1.117l-4.373-11.557c-.268-.702-.875-1.035-1.508-1.08-.035 0-.076-.034-.121-.034-.676.007-1.346.385-1.613 1.142l-4.189 11.629c-.236.653-.848 1.104-1.543 1.137l-12.348.591c-1.602.076-2.24 2.102-.977 3.089l9.764 7.584c.555.425.793 1.14.607 1.814l-3.254 11.927c-.422 1.54 1.305 2.779 2.641 1.884l10.219-6.946c.244-.166.533-.229.814-.253.385-.039.771.021 1.105.235l10.336 6.782c1.342.884 3.049-.385 2.605-1.924l-3.439-11.873c-.201-.671.031-1.393.572-1.83z"/></g><path d="m101.635 48.136-13.457 20.829-17.511-44.374-.159-.412-.313.412-33.28 44.374-11.372-39.537h-25.543l24.494 92.725 37.616-49.512 16.149 40.437 3.623 9.075 7.015-11.34 38.792-62.677z" fill="#f68d2e"/><path d="m331.231 68.921-7.962 45.254-1.637 9.3h15.165l2.227-12.658 7.374-41.896z" fill="#8c8c8c"/><path d="m377.855 82.983c-1.457-1.227-2.934-2.129-4.439-2.722-1.509-.587-2.998-.878-4.459-.878-1.852 0-3.398.423-4.64 1.271-1.246.847-1.929 1.953-2.049 3.315-.082.948.142 1.723.672 2.334.534.608 1.254 1.139 2.165 1.586.913.448 1.95.84 3.114 1.162 1.167.333 2.319.688 3.458 1.063 4.546 1.508 7.791 3.517 9.739 6.033 1.951 2.521 2.749 5.807 2.394 9.854-.237 2.729-.931 5.197-2.075 7.415-1.14 2.211-2.698 4.108-4.664 5.682-1.968 1.58-4.312 2.804-7.047 3.672-2.729.872-5.778 1.309-9.142 1.309-6.974 0-13.254-2.001-18.85-6.001l7.117-11.157c1.985 1.833 3.984 3.2 6.004 4.091 2.015.9 4.047 1.345 6.095 1.345 2.339 0 4.124-.519 5.362-1.556 1.234-1.031 1.914-2.211 2.03-3.529.069-.799-.015-1.487-.257-2.08-.243-.589-.684-1.127-1.319-1.626-.644-.493-1.488-.956-2.551-1.376-1.061-.423-2.347-.895-3.861-1.413-1.805-.565-3.561-1.188-5.279-1.871-1.724-.684-3.224-1.591-4.517-2.717-1.291-1.131-2.288-2.558-2.99-4.276-.706-1.717-.941-3.892-.711-6.533.231-2.632.89-5.018 1.979-7.163 1.095-2.142 2.521-3.976 4.284-5.508 1.77-1.528 3.871-2.719 6.312-3.567 2.437-.847 5.121-1.27 8.04-1.27 2.731 0 5.552.368 8.46 1.096 2.908.725 5.664 1.801 8.271 3.211z" fill="#8c8c8c"/><path d="m298.542 109.039.803-1.057 29.741-39.061h-16.742l-17.467 23.241-6.685-23.241h-15.028l14.41 54.554 10.326-13.592.005.003z" fill="#8c8c8c"/><path d="m237.114 88.792h31.035v14.812h-31.035z" fill="#8c8c8c"/></svg>