<?xml version="1.0" standalone="no"?>
<!DOCTYPE svg PUBLIC "-//W3C//DTD SVG 20010904//EN"
 "http://www.w3.org/TR/2001/REC-SVG-20010904/DTD/svg10.dtd">
<svg version="1.0" xmlns="http://www.w3.org/2000/svg"
 width="400.000000pt" height="400.000000pt" viewBox="0 0 400.000000 400.000000"
 preserveAspectRatio="xMidYMid meet">
<metadata>
Created by potrace 1.11, written by Peter Selinger 2001-2013
</metadata>
<g transform="translate(0.000000,400.000000) scale(0.100000,-0.100000)"
fill="#000000" stroke="none">
<path d="M3308 3693 c-8 -10 -41 -92 -74 -182 -32 -90 -65 -170 -72 -178 -7
-7 -34 -13 -60 -14 -46 -1 -115 -4 -259 -12 -81 -5 -105 -18 -101 -56 2 -19
38 -52 153 -141 92 -71 151 -123 153 -135 1 -11 -18 -94 -44 -185 -25 -91 -45
-173 -45 -183 0 -26 20 -47 44 -47 12 0 91 47 177 105 86 58 162 105 168 105
7 0 39 -17 70 -37 31 -21 62 -40 67 -43 6 -3 49 -31 97 -63 47 -32 96 -60 107
-62 31 -6 54 22 48 59 -6 36 -5 33 -52 196 -46 158 -47 161 -32 178 6 8 76 66
154 128 112 89 143 119 143 138 0 41 -20 47 -172 52 -223 8 -238 10 -253 25
-13 13 -89 201 -123 302 -11 34 -23 52 -39 58 -33 12 -38 12 -55 -8z"/>
<path d="M1555 2420 c-258 -341 -471 -617 -475 -613 -6 7 -38 114 -140 473
-21 74 -70 243 -108 375 l-69 240 -362 3 c-342 2 -362 1 -357 -15 3 -10 14
-53 26 -95 11 -43 29 -111 39 -150 32 -118 276 -1036 330 -1243 51 -192 60
-224 130 -485 21 -80 53 -201 71 -270 18 -69 43 -163 56 -210 13 -46 24 -92
24 -102 0 -27 15 -22 43 15 29 35 839 1096 952 1244 53 70 72 90 81 80 5 -6
30 -61 53 -122 24 -60 49 -123 56 -140 7 -16 43 -106 80 -200 37 -93 75 -188
85 -210 9 -22 75 -185 145 -362 71 -178 132 -323 135 -323 4 0 58 82 120 183
62 100 217 349 344 552 127 204 235 378 241 388 5 9 48 78 95 152 47 74 90
143 95 153 6 10 40 65 76 122 36 58 97 155 134 215 37 61 78 126 90 145 71
109 95 153 90 159 -4 3 -168 6 -364 6 l-358 1 -189 -292 c-104 -161 -192 -293
-195 -293 -3 -1 -92 218 -198 487 -107 268 -199 501 -206 517 -7 17 -29 73
-50 125 -20 52 -40 98 -44 103 -4 4 -218 -272 -476 -613z"/>
</g>
</svg>
